<svg xmlns="http://www.w3.org/2000/svg" xmlns:xlink="http://www.w3.org/1999/xlink" width="50" zoomAndPan="magnify" viewBox="0 0 37.5 37.499999" height="50" preserveAspectRatio="xMidYMid meet" version="1.0"><defs><clipPath id="e983c8c028"><path d="M 5 4 L 33.148438 4 L 33.148438 32 L 5 32 Z M 5 4 " clip-rule="nonzero"/></clipPath></defs><g clip-path="url(#e983c8c028)"><path fill="#545454" d="M 22.292969 31.011719 C 28.167969 29.550781 32.464844 24.382812 32.460938 18.328125 C 32.394531 16.039062 31.75 13.789062 30.550781 11.820312 C 29.460938 10.027344 28.011719 7.855469 26.113281 6.820312 C 20.976562 4.023438 14.058594 5.164062 9.910156 9.160156 C 5.574219 13.332031 4.867188 20.570312 8.238281 25.546875 C 11.324219 30.101562 16.84375 32.363281 22.292969 31.011719 Z M 33.09375 18.328125 C 33.097656 27.265625 24.242188 33.753906 15.574219 31.578125 C 10.855469 30.390625 7.023438 26.449219 5.910156 21.753906 C 4.691406 16.617188 6.277344 11.179688 10.488281 7.84375 C 14.488281 4.671875 20.199219 3.753906 24.996094 5.621094 C 27.433594 6.570312 29.074219 8.449219 30.5 10.570312 C 32.074219 12.902344 33.011719 15.519531 33.09375 18.328125 " fill-opacity="1" fill-rule="nonzero"/></g><path fill="#545454" d="M 31.265625 20.207031 C 31.308594 20.207031 31.324219 20.773438 31.148438 21.664062 C 31.0625 22.109375 30.914062 22.628906 30.722656 23.199219 C 30.519531 23.765625 30.28125 24.371094 29.96875 25 C 29.882812 25.152344 29.796875 25.304688 29.710938 25.453125 C 29.617188 25.597656 29.507812 25.730469 29.410156 25.867188 C 29.316406 26.003906 29.203125 26.121094 29.089844 26.238281 C 28.980469 26.347656 28.882812 26.472656 28.761719 26.570312 C 28.648438 26.671875 28.539062 26.769531 28.429688 26.863281 C 28.324219 26.957031 28.207031 27.039062 28.101562 27.121094 C 27.890625 27.289062 27.679688 27.421875 27.492188 27.550781 C 26.730469 28.042969 26.234375 28.308594 26.207031 28.269531 C 26.179688 28.226562 26.628906 27.886719 27.34375 27.347656 C 27.523438 27.210938 27.71875 27.066406 27.914062 26.894531 C 28.015625 26.808594 28.125 26.726562 28.226562 26.632812 C 28.324219 26.535156 28.425781 26.4375 28.535156 26.335938 C 28.9375 25.921875 29.359375 25.4375 29.652344 24.839844 C 29.953125 24.238281 30.199219 23.632812 30.414062 23.089844 C 30.617188 22.539062 30.789062 22.039062 30.902344 21.609375 C 31.136719 20.753906 31.210938 20.207031 31.265625 20.207031 " fill-opacity="1" fill-rule="nonzero"/><path fill="#545454" d="M 30.039062 21.703125 C 30.082031 21.707031 30.089844 22.039062 29.976562 22.5625 C 29.921875 22.824219 29.824219 23.128906 29.699219 23.460938 C 29.566406 23.789062 29.390625 24.140625 29.167969 24.488281 C 28.941406 24.832031 28.6875 25.136719 28.429688 25.390625 C 28.164062 25.632812 27.90625 25.832031 27.667969 25.964844 C 27.183594 26.238281 26.859375 26.289062 26.839844 26.253906 C 26.816406 26.203125 27.125 26.058594 27.527344 25.757812 C 27.632812 25.679688 27.742188 25.59375 27.851562 25.492188 C 27.96875 25.398438 28.074219 25.28125 28.195312 25.160156 C 28.425781 24.914062 28.65625 24.625 28.871094 24.296875 C 29.082031 23.96875 29.25 23.640625 29.398438 23.335938 C 29.535156 23.023438 29.652344 22.738281 29.734375 22.492188 C 29.902344 22.007812 29.984375 21.695312 30.039062 21.703125 " fill-opacity="1" fill-rule="nonzero"/><path fill="#545454" d="M 29.332031 12.226562 C 29.574219 13.105469 29.660156 13.660156 29.617188 13.675781 C 29.5625 13.6875 29.394531 13.148438 29.089844 12.300781 C 28.941406 11.875 28.742188 11.378906 28.464844 10.863281 C 28.386719 10.738281 28.324219 10.601562 28.234375 10.476562 C 28.152344 10.355469 28.0625 10.230469 27.972656 10.101562 C 27.871094 9.976562 27.761719 9.851562 27.648438 9.726562 C 27.546875 9.605469 27.425781 9.488281 27.296875 9.378906 C 26.277344 8.472656 25.183594 7.832031 24.367188 7.464844 C 23.960938 7.285156 23.609375 7.175781 23.367188 7.125 C 23.25 7.09375 23.148438 7.085938 23.078125 7.074219 C 23.011719 7.0625 22.976562 7.046875 22.976562 7.035156 C 22.976562 7.027344 23.011719 7.011719 23.082031 7 C 23.148438 6.992188 23.246094 6.976562 23.378906 6.992188 C 23.648438 7 24.023438 7.078125 24.460938 7.234375 C 25.335938 7.554688 26.472656 8.175781 27.539062 9.117188 C 27.671875 9.238281 27.796875 9.359375 27.917969 9.5 C 28.027344 9.628906 28.136719 9.75 28.242188 9.878906 C 28.335938 10.019531 28.433594 10.160156 28.523438 10.296875 C 28.613281 10.4375 28.679688 10.578125 28.753906 10.714844 C 29.03125 11.261719 29.210938 11.785156 29.332031 12.226562 " fill-opacity="1" fill-rule="nonzero"/><path fill="#545454" d="M 28.667969 13.339844 C 28.871094 14.265625 28.921875 14.859375 28.878906 14.863281 C 28.820312 14.863281 28.6875 14.300781 28.425781 13.398438 C 28.296875 12.945312 28.136719 12.410156 27.855469 11.867188 C 27.785156 11.734375 27.714844 11.597656 27.625 11.464844 C 27.542969 11.328125 27.445312 11.207031 27.34375 11.082031 C 27.25 10.957031 27.109375 10.820312 27.003906 10.703125 C 26.878906 10.585938 26.753906 10.464844 26.613281 10.347656 C 25.53125 9.417969 24.371094 8.78125 23.507812 8.421875 C 23.074219 8.242188 22.707031 8.125 22.453125 8.058594 C 22.203125 7.992188 22.054688 7.957031 22.054688 7.929688 C 22.058594 7.910156 22.207031 7.898438 22.476562 7.921875 C 22.753906 7.949219 23.136719 8.035156 23.597656 8.1875 C 24.515625 8.5 25.722656 9.121094 26.847656 10.085938 C 26.992188 10.203125 27.125 10.328125 27.253906 10.453125 C 27.386719 10.601562 27.5 10.710938 27.609375 10.855469 C 27.71875 11 27.828125 11.140625 27.914062 11.289062 C 28.007812 11.429688 28.082031 11.582031 28.152344 11.726562 C 28.433594 12.3125 28.570312 12.871094 28.667969 13.339844 " fill-opacity="1" fill-rule="nonzero"/><path fill="#545454" d="M 28.164062 14.515625 C 28.171875 14.757812 28.164062 14.886719 28.140625 14.890625 C 28.117188 14.890625 28.074219 14.761719 28.023438 14.539062 C 28.011719 14.480469 28 14.417969 27.984375 14.351562 C 27.96875 14.28125 27.9375 14.210938 27.914062 14.128906 C 27.855469 13.976562 27.820312 13.796875 27.722656 13.613281 C 27.679688 13.519531 27.636719 13.421875 27.589844 13.320312 C 27.542969 13.21875 27.472656 13.121094 27.414062 13.015625 C 27.300781 12.804688 27.136719 12.605469 26.976562 12.386719 C 26.628906 11.96875 26.195312 11.550781 25.6875 11.171875 C 25.175781 10.800781 24.648438 10.5 24.15625 10.25 C 23.65625 10.015625 23.195312 9.816406 22.796875 9.683594 C 22.011719 9.402344 21.488281 9.289062 21.5 9.234375 C 21.511719 9.191406 22.039062 9.222656 22.875 9.449219 C 23.292969 9.550781 23.773438 9.730469 24.296875 9.957031 C 24.8125 10.199219 25.367188 10.503906 25.898438 10.890625 C 26.429688 11.289062 26.878906 11.734375 27.234375 12.1875 C 27.398438 12.421875 27.5625 12.640625 27.671875 12.875 C 27.726562 12.988281 27.796875 13.09375 27.839844 13.203125 C 27.878906 13.3125 27.917969 13.421875 27.957031 13.523438 C 28.042969 13.722656 28.066406 13.917969 28.109375 14.085938 C 28.121094 14.167969 28.144531 14.242188 28.148438 14.316406 C 28.152344 14.390625 28.15625 14.457031 28.164062 14.515625 " fill-opacity="1" fill-rule="nonzero"/><path fill="#545454" d="M 26.574219 14.253906 C 26.847656 14.941406 26.859375 15.40625 26.824219 15.410156 C 26.765625 15.421875 26.660156 14.984375 26.34375 14.355469 C 26.304688 14.273438 26.257812 14.195312 26.214844 14.109375 C 26.167969 14.023438 26.113281 13.941406 26.058594 13.851562 C 25.953125 13.671875 25.8125 13.5 25.675781 13.3125 C 25.382812 12.949219 25.023438 12.578125 24.605469 12.234375 C 24.183594 11.894531 23.746094 11.617188 23.332031 11.390625 C 23.125 11.28125 22.925781 11.175781 22.730469 11.097656 C 22.542969 11.007812 22.359375 10.9375 22.1875 10.875 C 21.523438 10.632812 21.066406 10.539062 21.082031 10.484375 C 21.089844 10.445312 21.542969 10.445312 22.265625 10.640625 C 22.445312 10.6875 22.640625 10.746094 22.84375 10.828125 C 23.050781 10.898438 23.261719 11 23.484375 11.101562 C 23.925781 11.324219 24.390625 11.605469 24.832031 11.964844 C 25.273438 12.324219 25.640625 12.722656 25.9375 13.113281 C 26.074219 13.320312 26.214844 13.511719 26.3125 13.707031 C 26.363281 13.800781 26.417969 13.890625 26.460938 13.984375 C 26.5 14.078125 26.539062 14.167969 26.574219 14.253906 " fill-opacity="1" fill-rule="nonzero"/><path fill="#545454" d="M 25.660156 15.042969 C 25.871094 15.636719 25.914062 16.027344 25.875 16.035156 C 25.824219 16.050781 25.691406 15.691406 25.429688 15.136719 C 25.164062 14.59375 24.742188 13.851562 24.046875 13.253906 C 23.351562 12.65625 22.550781 12.351562 21.964844 12.171875 C 21.382812 11.996094 20.992188 11.921875 21 11.867188 C 21.011719 11.828125 21.394531 11.8125 22.027344 11.929688 C 22.644531 12.054688 23.523438 12.339844 24.28125 12.988281 C 25.035156 13.640625 25.449219 14.453125 25.660156 15.042969 " fill-opacity="1" fill-rule="nonzero"/><path fill="#545454" d="M 24.945312 15.738281 C 25.136719 16.328125 25.066406 16.71875 25.03125 16.714844 C 24.972656 16.714844 24.941406 16.347656 24.710938 15.828125 C 24.683594 15.761719 24.652344 15.695312 24.617188 15.625 C 24.578125 15.558594 24.535156 15.488281 24.492188 15.414062 C 24.417969 15.265625 24.296875 15.128906 24.1875 14.976562 C 23.949219 14.683594 23.65625 14.386719 23.308594 14.113281 C 22.957031 13.847656 22.597656 13.632812 22.253906 13.460938 C 21.90625 13.304688 21.585938 13.171875 21.300781 13.101562 C 20.753906 12.945312 20.367188 12.941406 20.367188 12.882812 C 20.371094 12.84375 20.738281 12.757812 21.355469 12.859375 C 21.664062 12.902344 22.015625 13.015625 22.390625 13.164062 C 22.761719 13.332031 23.15625 13.550781 23.527344 13.835938 C 23.894531 14.128906 24.207031 14.453125 24.453125 14.78125 C 24.558594 14.953125 24.679688 15.105469 24.75 15.273438 C 24.792969 15.355469 24.828125 15.433594 24.867188 15.507812 C 24.894531 15.589844 24.921875 15.664062 24.945312 15.738281 " fill-opacity="1" fill-rule="nonzero"/><path fill="#545454" d="M 23.179688 21.378906 C 23.722656 20.453125 24.414062 18.992188 24.132812 17.886719 C 23.851562 16.78125 23.21875 15.691406 22.226562 15.054688 C 20.511719 13.957031 18.09375 13.820312 16.582031 15.371094 C 15.785156 16.183594 15.003906 17.144531 14.992188 18.339844 C 14.976562 19.632812 15.46875 20.90625 16.492188 21.753906 C 18.320312 23.277344 21.667969 23.503906 23.179688 21.378906 Z M 24.792969 18.03125 C 24.984375 19.242188 24.324219 20.675781 23.722656 21.695312 C 23.710938 21.714844 23.691406 21.738281 23.675781 21.753906 C 22.039062 23.96875 18.355469 24.117188 16.289062 22.402344 C 13.921875 20.429688 13.796875 17.324219 15.921875 15.144531 C 17.78125 13.242188 20.613281 13.132812 22.761719 14.667969 C 23.851562 15.449219 24.582031 16.730469 24.792969 18.03125 " fill-opacity="1" fill-rule="nonzero"/><path fill="#545454" d="M 22.730469 19.0625 C 23.03125 17.394531 21.835938 15.851562 20.171875 15.507812 C 18.363281 15.132812 16.292969 16.050781 16.273438 18.117188 C 16.257812 20.097656 17.644531 21.667969 19.714844 21.640625 C 21.105469 21.496094 22.472656 20.492188 22.730469 19.0625 Z M 19.925781 15.140625 C 21.785156 15.390625 23.269531 17 23.082031 18.871094 C 22.914062 20.566406 21.335938 21.785156 19.714844 21.953125 C 17.597656 21.980469 15.773438 20.277344 15.957031 18.117188 C 16.136719 16.015625 17.867188 14.871094 19.925781 15.140625 " fill-opacity="1" fill-rule="nonzero"/><path fill="#545454" d="M 19.679688 18.546875 C 19.683594 18.441406 19.644531 18.269531 19.527344 18.230469 C 19.34375 18.171875 19.128906 18.328125 19.058594 18.488281 C 18.957031 18.71875 19.164062 18.828125 19.367188 18.824219 C 19.53125 18.8125 19.675781 18.722656 19.679688 18.546875 Z M 19.585938 17.921875 C 19.855469 18.007812 20.027344 18.296875 19.996094 18.570312 C 19.957031 18.914062 19.710938 19.117188 19.367188 19.136719 C 18.984375 19.144531 18.589844 18.847656 18.742188 18.429688 C 18.855469 18.121094 19.234375 17.808594 19.585938 17.921875 " fill-opacity="1" fill-rule="nonzero"/><path fill="#545454" d="M 17.738281 23.898438 C 18.195312 24.035156 18.488281 24.113281 18.480469 24.167969 C 18.476562 24.210938 18.167969 24.21875 17.671875 24.140625 C 17.183594 24.042969 16.515625 23.8125 15.871094 23.402344 C 15.230469 22.980469 14.746094 22.488281 14.429688 22.105469 C 14.128906 21.714844 13.988281 21.453125 14.019531 21.421875 C 14.058594 21.390625 14.28125 21.605469 14.621094 21.941406 C 14.96875 22.269531 15.460938 22.707031 16.066406 23.109375 C 16.679688 23.496094 17.285156 23.746094 17.738281 23.898438 " fill-opacity="1" fill-rule="nonzero"/><path fill="#545454" d="M 16.761719 26.125 C 17.421875 26.382812 17.859375 26.472656 17.847656 26.53125 C 17.847656 26.570312 17.386719 26.566406 16.679688 26.363281 C 16.324219 26.269531 15.921875 26.101562 15.480469 25.898438 C 15.050781 25.683594 14.585938 25.417969 14.128906 25.105469 C 13.671875 24.789062 13.257812 24.457031 12.902344 24.140625 C 12.546875 23.816406 12.238281 23.511719 12 23.242188 C 11.515625 22.695312 11.28125 22.320312 11.316406 22.292969 C 11.398438 22.222656 12.539062 23.589844 14.332031 24.816406 C 14.777344 25.121094 15.21875 25.386719 15.628906 25.609375 C 16.046875 25.820312 16.429688 26.003906 16.761719 26.125 " fill-opacity="1" fill-rule="nonzero"/><path fill="#545454" d="M 15.242188 24.019531 C 16.574219 24.914062 17.820312 25.382812 17.777344 25.488281 C 17.761719 25.53125 17.433594 25.460938 16.925781 25.277344 C 16.417969 25.089844 15.730469 24.773438 15.039062 24.308594 C 14.355469 23.835938 13.820312 23.292969 13.480469 22.867188 C 13.15625 22.4375 13.003906 22.144531 13.035156 22.117188 C 13.078125 22.085938 13.308594 22.328125 13.675781 22.710938 C 14.046875 23.074219 14.582031 23.5625 15.242188 24.019531 " fill-opacity="1" fill-rule="nonzero"/><path fill="#545454" d="M 15.523438 28.8125 C 16.335938 29.125 16.875 29.21875 16.867188 29.277344 C 16.863281 29.3125 16.300781 29.304688 15.441406 29.046875 C 15.226562 28.988281 15 28.894531 14.75 28.804688 C 14.511719 28.699219 14.25 28.59375 13.992188 28.457031 C 13.726562 28.328125 13.453125 28.167969 13.179688 28.003906 C 13.042969 27.917969 12.917969 27.847656 12.765625 27.742188 C 12.632812 27.644531 12.496094 27.546875 12.363281 27.449219 C 11.816406 27.050781 11.308594 26.683594 10.832031 26.324219 C 10.367188 25.933594 10.054688 25.496094 9.789062 25.144531 C 9.535156 24.789062 9.316406 24.523438 9.164062 24.335938 C 8.996094 24.152344 8.910156 24.046875 8.925781 24.03125 C 8.941406 24.011719 9.0625 24.085938 9.257812 24.234375 C 9.445312 24.398438 9.707031 24.65625 9.988281 24.992188 C 10.273438 25.324219 10.601562 25.726562 11.039062 26.066406 C 11.507812 26.40625 12.027344 26.773438 12.570312 27.164062 C 12.707031 27.261719 12.839844 27.359375 12.972656 27.457031 C 13.085938 27.539062 13.242188 27.628906 13.367188 27.714844 C 13.632812 27.878906 13.886719 28.035156 14.140625 28.167969 C 14.394531 28.308594 14.640625 28.421875 14.871094 28.535156 C 15.105469 28.636719 15.320312 28.742188 15.523438 28.8125 " fill-opacity="1" fill-rule="nonzero"/><path fill="#545454" d="M 15.726562 27.207031 C 16.402344 27.472656 16.84375 27.589844 16.828125 27.644531 C 16.824219 27.6875 16.359375 27.652344 15.644531 27.441406 C 15.285156 27.339844 14.875 27.179688 14.421875 26.980469 C 13.976562 26.773438 13.496094 26.523438 13.019531 26.214844 C 12.546875 25.902344 12.117188 25.570312 11.75 25.242188 C 11.390625 24.902344 11.085938 24.582031 10.867188 24.28125 C 10.414062 23.679688 10.261719 23.25 10.296875 23.230469 C 10.347656 23.199219 10.582031 23.597656 11.0625 24.125 C 11.296875 24.394531 11.609375 24.6875 11.96875 25 C 12.332031 25.304688 12.753906 25.617188 13.214844 25.921875 C 13.679688 26.21875 14.136719 26.472656 14.5625 26.691406 C 14.996094 26.898438 15.386719 27.078125 15.726562 27.207031 " fill-opacity="1" fill-rule="nonzero"/><path fill="#545454" d="M 15.601562 6.515625 C 15.621094 6.558594 15.070312 6.835938 14.175781 7.253906 C 13.953125 7.359375 13.707031 7.472656 13.449219 7.605469 C 13.191406 7.730469 12.925781 7.882812 12.644531 8.042969 C 12.5 8.117188 12.367188 8.214844 12.222656 8.304688 C 12.085938 8.394531 11.9375 8.480469 11.804688 8.59375 C 11.671875 8.699219 11.53125 8.796875 11.394531 8.914062 C 11.265625 9.042969 11.132812 9.171875 11 9.304688 C 10.488281 9.828125 10.046875 10.394531 9.664062 10.90625 C 9.480469 11.175781 9.296875 11.421875 9.148438 11.664062 C 9.070312 11.785156 8.992188 11.902344 8.917969 12.011719 C 8.851562 12.128906 8.789062 12.238281 8.722656 12.339844 C 8.222656 13.179688 7.957031 13.730469 7.910156 13.707031 C 7.871094 13.691406 8.050781 13.109375 8.503906 12.222656 C 8.5625 12.113281 8.621094 11.996094 8.683594 11.875 C 8.75 11.761719 8.824219 11.636719 8.898438 11.511719 C 9.039062 11.257812 9.214844 11 9.394531 10.722656 C 9.773438 10.183594 10.210938 9.609375 10.746094 9.050781 C 10.882812 8.921875 11.015625 8.792969 11.148438 8.664062 C 11.289062 8.542969 11.445312 8.433594 11.59375 8.320312 C 11.738281 8.199219 11.890625 8.113281 12.039062 8.019531 C 12.191406 7.929688 12.332031 7.832031 12.480469 7.761719 C 12.773438 7.605469 13.054688 7.460938 13.324219 7.34375 C 13.589844 7.222656 13.84375 7.117188 14.074219 7.027344 C 15 6.664062 15.582031 6.472656 15.601562 6.515625 " fill-opacity="1" fill-rule="nonzero"/><path fill="#545454" d="M 13.808594 8.359375 C 13.832031 8.402344 13.519531 8.605469 13.019531 8.921875 C 12.535156 9.257812 11.871094 9.730469 11.253906 10.375 C 10.640625 11.023438 10.179688 11.695312 9.835938 12.175781 C 9.503906 12.667969 9.285156 12.96875 9.242188 12.945312 C 9.203125 12.917969 9.34375 12.578125 9.621094 12.050781 C 9.914062 11.523438 10.355469 10.808594 10.996094 10.132812 C 11.644531 9.457031 12.359375 8.996094 12.890625 8.707031 C 13.4375 8.441406 13.789062 8.316406 13.808594 8.359375 " fill-opacity="1" fill-rule="nonzero"/><path fill="#545454" d="M 12.824219 10.128906 C 12.851562 10.175781 12.738281 10.28125 12.5625 10.433594 C 12.390625 10.589844 12.160156 10.808594 11.921875 11.070312 C 11.691406 11.332031 11.507812 11.585938 11.375 11.769531 C 11.246094 11.964844 11.152344 12.097656 11.105469 12.074219 C 11.0625 12.054688 11.066406 11.902344 11.144531 11.671875 C 11.230469 11.425781 11.40625 11.121094 11.65625 10.835938 C 11.914062 10.550781 12.195312 10.34375 12.421875 10.230469 C 12.648438 10.117188 12.804688 10.085938 12.824219 10.128906 " fill-opacity="1" fill-rule="nonzero"/></svg>