<svg xmlns="http://www.w3.org/2000/svg" xmlns:xlink="http://www.w3.org/1999/xlink" width="150" zoomAndPan="magnify" viewBox="0 0 112.5 37.5" height="50" preserveAspectRatio="xMidYMid meet" version="1.0"><defs><g/><clipPath id="75b686a650"><path d="M 5 6 L 30.734375 6 L 30.734375 32 L 5 32 Z M 5 6 " clip-rule="nonzero"/></clipPath></defs><g clip-path="url(#75b686a650)"><path fill="#545454" d="M 20.820312 30.585938 C 26.183594 29.246094 30.105469 24.507812 30.105469 18.957031 C 30.042969 16.859375 29.457031 14.796875 28.359375 12.992188 C 27.367188 11.347656 26.039062 9.355469 24.308594 8.402344 C 19.621094 5.839844 13.304688 6.886719 9.515625 10.550781 C 5.558594 14.375 4.914062 21.011719 7.992188 25.574219 C 10.808594 29.753906 15.847656 31.828125 20.820312 30.585938 Z M 30.679688 18.957031 C 30.683594 27.152344 22.601562 33.101562 14.6875 31.105469 C 10.378906 30.015625 6.882812 26.402344 5.867188 22.101562 C 4.753906 17.390625 6.203125 12.402344 10.046875 9.34375 C 13.695312 6.433594 18.910156 5.59375 23.289062 7.304688 C 25.511719 8.175781 27.011719 9.902344 28.316406 11.84375 C 29.75 13.984375 30.605469 16.378906 30.679688 18.957031 " fill-opacity="1" fill-rule="nonzero"/></g><path fill="#545454" d="M 29.011719 20.679688 C 29.050781 20.679688 29.066406 21.199219 28.90625 22.015625 C 28.828125 22.425781 28.691406 22.902344 28.515625 23.421875 C 28.332031 23.941406 28.113281 24.5 27.832031 25.074219 C 27.75 25.210938 27.671875 25.355469 27.59375 25.492188 C 27.507812 25.625 27.410156 25.742188 27.320312 25.867188 C 27.234375 25.992188 27.128906 26.101562 27.027344 26.207031 C 26.925781 26.3125 26.835938 26.425781 26.726562 26.515625 C 26.625 26.605469 26.523438 26.695312 26.425781 26.785156 C 26.324219 26.871094 26.21875 26.941406 26.125 27.019531 C 25.929688 27.171875 25.742188 27.296875 25.566406 27.414062 C 24.871094 27.867188 24.421875 28.105469 24.394531 28.070312 C 24.367188 28.03125 24.777344 27.722656 25.433594 27.226562 C 25.59375 27.101562 25.773438 26.96875 25.953125 26.8125 C 26.046875 26.734375 26.144531 26.65625 26.238281 26.570312 C 26.328125 26.480469 26.421875 26.390625 26.519531 26.300781 C 26.886719 25.917969 27.273438 25.472656 27.539062 24.929688 C 27.8125 24.375 28.039062 23.820312 28.238281 23.320312 C 28.421875 22.816406 28.578125 22.359375 28.679688 21.964844 C 28.894531 21.183594 28.960938 20.679688 29.011719 20.679688 " fill-opacity="1" fill-rule="nonzero"/><path fill="#545454" d="M 27.890625 22.050781 C 27.933594 22.054688 27.9375 22.359375 27.835938 22.839844 C 27.785156 23.078125 27.699219 23.359375 27.582031 23.660156 C 27.460938 23.964844 27.300781 24.285156 27.097656 24.605469 C 26.890625 24.921875 26.660156 25.199219 26.425781 25.429688 C 26.183594 25.65625 25.945312 25.835938 25.730469 25.957031 C 25.285156 26.210938 24.988281 26.257812 24.972656 26.222656 C 24.949219 26.175781 25.234375 26.042969 25.601562 25.769531 C 25.695312 25.699219 25.796875 25.621094 25.898438 25.527344 C 26.003906 25.441406 26.101562 25.332031 26.210938 25.222656 C 26.417969 24.996094 26.628906 24.730469 26.824219 24.429688 C 27.019531 24.128906 27.175781 23.828125 27.308594 23.546875 C 27.429688 23.261719 27.539062 23.003906 27.613281 22.777344 C 27.769531 22.332031 27.84375 22.042969 27.890625 22.050781 " fill-opacity="1" fill-rule="nonzero"/><path fill="#545454" d="M 27.246094 13.359375 C 27.46875 14.171875 27.546875 14.679688 27.507812 14.691406 C 27.457031 14.703125 27.304688 14.207031 27.027344 13.429688 C 26.890625 13.042969 26.710938 12.585938 26.453125 12.113281 C 26.386719 12 26.324219 11.871094 26.246094 11.757812 C 26.167969 11.648438 26.089844 11.53125 26.007812 11.414062 C 25.914062 11.300781 25.8125 11.183594 25.710938 11.070312 C 25.617188 10.960938 25.507812 10.851562 25.390625 10.75 C 24.460938 9.921875 23.460938 9.332031 22.714844 9 C 22.34375 8.832031 22.023438 8.730469 21.800781 8.6875 C 21.695312 8.65625 21.601562 8.652344 21.539062 8.636719 C 21.480469 8.625 21.445312 8.613281 21.445312 8.601562 C 21.445312 8.59375 21.480469 8.582031 21.539062 8.570312 C 21.601562 8.5625 21.691406 8.550781 21.8125 8.5625 C 22.058594 8.570312 22.402344 8.640625 22.800781 8.785156 C 23.601562 9.078125 24.636719 9.648438 25.613281 10.511719 C 25.734375 10.621094 25.847656 10.734375 25.957031 10.859375 C 26.054688 10.980469 26.15625 11.089844 26.25 11.210938 C 26.339844 11.339844 26.425781 11.46875 26.507812 11.59375 C 26.589844 11.722656 26.652344 11.851562 26.71875 11.976562 C 26.972656 12.476562 27.136719 12.957031 27.246094 13.359375 " fill-opacity="1" fill-rule="nonzero"/><path fill="#545454" d="M 26.640625 14.382812 C 26.828125 15.230469 26.871094 15.777344 26.832031 15.78125 C 26.78125 15.78125 26.660156 15.265625 26.417969 14.4375 C 26.300781 14.019531 26.15625 13.527344 25.902344 13.035156 C 25.835938 12.910156 25.773438 12.785156 25.6875 12.664062 C 25.613281 12.539062 25.523438 12.429688 25.433594 12.3125 C 25.347656 12.195312 25.21875 12.074219 25.121094 11.964844 C 25.007812 11.855469 24.890625 11.746094 24.765625 11.640625 C 23.777344 10.789062 22.71875 10.203125 21.929688 9.875 C 21.535156 9.710938 21.199219 9.601562 20.96875 9.542969 C 20.738281 9.476562 20.605469 9.449219 20.605469 9.425781 C 20.605469 9.402344 20.746094 9.394531 20.992188 9.417969 C 21.242188 9.441406 21.589844 9.519531 22.011719 9.660156 C 22.851562 9.945312 23.953125 10.515625 24.980469 11.398438 C 25.109375 11.507812 25.230469 11.625 25.351562 11.738281 C 25.472656 11.871094 25.574219 11.972656 25.675781 12.105469 C 25.773438 12.238281 25.875 12.367188 25.953125 12.503906 C 26.035156 12.632812 26.105469 12.769531 26.167969 12.90625 C 26.425781 13.441406 26.554688 13.953125 26.640625 14.382812 " fill-opacity="1" fill-rule="nonzero"/><path fill="#545454" d="M 26.179688 15.460938 C 26.1875 15.683594 26.183594 15.804688 26.160156 15.804688 C 26.136719 15.804688 26.101562 15.6875 26.054688 15.480469 C 26.042969 15.429688 26.03125 15.371094 26.019531 15.308594 C 26.003906 15.246094 25.976562 15.183594 25.953125 15.109375 C 25.902344 14.96875 25.867188 14.800781 25.777344 14.632812 C 25.738281 14.546875 25.699219 14.457031 25.65625 14.363281 C 25.613281 14.269531 25.550781 14.183594 25.496094 14.085938 C 25.394531 13.894531 25.242188 13.710938 25.097656 13.507812 C 24.777344 13.125 24.382812 12.746094 23.921875 12.394531 C 23.453125 12.054688 22.972656 11.78125 22.523438 11.550781 C 22.066406 11.335938 21.648438 11.152344 21.285156 11.03125 C 20.5625 10.773438 20.085938 10.667969 20.097656 10.621094 C 20.109375 10.582031 20.589844 10.605469 21.351562 10.816406 C 21.734375 10.910156 22.171875 11.074219 22.652344 11.285156 C 23.121094 11.503906 23.625 11.78125 24.113281 12.136719 C 24.597656 12.5 25.007812 12.910156 25.332031 13.328125 C 25.480469 13.542969 25.632812 13.742188 25.730469 13.957031 C 25.785156 14.0625 25.84375 14.15625 25.882812 14.257812 C 25.921875 14.359375 25.957031 14.457031 25.992188 14.550781 C 26.070312 14.734375 26.09375 14.914062 26.128906 15.066406 C 26.144531 15.144531 26.164062 15.210938 26.167969 15.28125 C 26.171875 15.347656 26.175781 15.410156 26.179688 15.460938 " fill-opacity="1" fill-rule="nonzero"/><path fill="#545454" d="M 24.730469 15.21875 C 24.976562 15.851562 24.988281 16.277344 24.957031 16.28125 C 24.902344 16.292969 24.808594 15.890625 24.519531 15.3125 C 24.480469 15.242188 24.441406 15.167969 24.402344 15.089844 C 24.359375 15.007812 24.308594 14.933594 24.257812 14.851562 C 24.164062 14.6875 24.035156 14.53125 23.910156 14.359375 C 23.640625 14.023438 23.316406 13.683594 22.933594 13.371094 C 22.550781 13.058594 22.148438 12.804688 21.769531 12.59375 C 21.578125 12.496094 21.402344 12.398438 21.222656 12.328125 C 21.046875 12.246094 20.882812 12.179688 20.726562 12.125 C 20.117188 11.898438 19.703125 11.816406 19.714844 11.765625 C 19.722656 11.730469 20.136719 11.730469 20.796875 11.910156 C 20.960938 11.953125 21.140625 12.003906 21.324219 12.082031 C 21.515625 12.144531 21.707031 12.238281 21.910156 12.332031 C 22.308594 12.535156 22.734375 12.792969 23.140625 13.121094 C 23.542969 13.449219 23.878906 13.816406 24.148438 14.175781 C 24.273438 14.363281 24.398438 14.539062 24.492188 14.71875 C 24.535156 14.808594 24.585938 14.890625 24.625 14.972656 C 24.660156 15.058594 24.695312 15.140625 24.730469 15.21875 " fill-opacity="1" fill-rule="nonzero"/><path fill="#545454" d="M 23.894531 15.945312 C 24.089844 16.492188 24.128906 16.847656 24.089844 16.855469 C 24.042969 16.871094 23.921875 16.539062 23.683594 16.03125 C 23.441406 15.53125 23.058594 14.851562 22.421875 14.304688 C 21.789062 13.757812 21.054688 13.476562 20.523438 13.3125 C 19.988281 13.152344 19.632812 13.082031 19.640625 13.03125 C 19.652344 12.996094 20 12.984375 20.578125 13.089844 C 21.140625 13.203125 21.945312 13.464844 22.636719 14.0625 C 23.324219 14.65625 23.699219 15.40625 23.894531 15.945312 " fill-opacity="1" fill-rule="nonzero"/><path fill="#545454" d="M 23.242188 16.582031 C 23.417969 17.125 23.355469 17.480469 23.320312 17.476562 C 23.265625 17.476562 23.238281 17.140625 23.03125 16.664062 C 23.003906 16.601562 22.972656 16.542969 22.941406 16.476562 C 22.90625 16.414062 22.871094 16.351562 22.828125 16.285156 C 22.761719 16.148438 22.648438 16.023438 22.550781 15.882812 C 22.332031 15.617188 22.0625 15.339844 21.75 15.09375 C 21.429688 14.847656 21.097656 14.652344 20.785156 14.492188 C 20.46875 14.347656 20.175781 14.230469 19.917969 14.164062 C 19.417969 14.023438 19.066406 14.015625 19.066406 13.964844 C 19.066406 13.929688 19.402344 13.851562 19.96875 13.941406 C 20.246094 13.980469 20.566406 14.085938 20.910156 14.222656 C 21.25 14.375 21.609375 14.578125 21.949219 14.839844 C 22.285156 15.105469 22.566406 15.40625 22.792969 15.703125 C 22.890625 15.863281 23 16.003906 23.066406 16.15625 C 23.101562 16.230469 23.136719 16.304688 23.171875 16.371094 C 23.199219 16.445312 23.21875 16.515625 23.242188 16.582031 " fill-opacity="1" fill-rule="nonzero"/><path fill="#545454" d="M 21.628906 21.753906 C 22.125 20.90625 22.757812 19.566406 22.5 18.554688 C 22.242188 17.535156 21.667969 16.539062 20.761719 15.957031 C 19.195312 14.949219 16.988281 14.824219 15.609375 16.242188 C 14.882812 16.992188 14.167969 17.871094 14.15625 18.96875 C 14.144531 20.152344 14.59375 21.320312 15.527344 22.101562 C 17.195312 23.492188 20.25 23.703125 21.628906 21.753906 Z M 23.101562 18.6875 C 23.28125 19.796875 22.675781 21.109375 22.128906 22.042969 C 22.113281 22.0625 22.097656 22.082031 22.082031 22.097656 C 20.589844 24.128906 17.226562 24.265625 15.339844 22.691406 C 13.179688 20.882812 13.066406 18.035156 15.003906 16.039062 C 16.703125 14.292969 19.289062 14.191406 21.246094 15.601562 C 22.242188 16.316406 22.914062 17.492188 23.101562 18.6875 " fill-opacity="1" fill-rule="nonzero"/><path fill="#545454" d="M 21.21875 19.632812 C 21.496094 18.101562 20.402344 16.6875 18.886719 16.371094 C 17.234375 16.027344 15.34375 16.867188 15.324219 18.761719 C 15.3125 20.578125 16.578125 22.019531 18.46875 21.992188 C 19.738281 21.863281 20.984375 20.941406 21.21875 19.632812 Z M 18.660156 16.035156 C 20.359375 16.261719 21.710938 17.738281 21.539062 19.457031 C 21.390625 21.007812 19.949219 22.128906 18.46875 22.28125 C 16.535156 22.304688 14.871094 20.742188 15.039062 18.761719 C 15.203125 16.835938 16.78125 15.785156 18.660156 16.035156 " fill-opacity="1" fill-rule="nonzero"/><path fill="#545454" d="M 18.4375 19.15625 C 18.441406 19.0625 18.40625 18.902344 18.296875 18.867188 C 18.128906 18.8125 17.933594 18.957031 17.867188 19.105469 C 17.773438 19.316406 17.964844 19.414062 18.152344 19.410156 C 18.300781 19.402344 18.433594 19.316406 18.4375 19.15625 Z M 18.351562 18.585938 C 18.59375 18.664062 18.753906 18.925781 18.722656 19.179688 C 18.6875 19.496094 18.464844 19.679688 18.152344 19.699219 C 17.800781 19.703125 17.441406 19.433594 17.582031 19.050781 C 17.683594 18.769531 18.03125 18.480469 18.351562 18.585938 " fill-opacity="1" fill-rule="nonzero"/><path fill="#545454" d="M 16.664062 24.066406 C 17.078125 24.1875 17.347656 24.261719 17.34375 24.3125 C 17.339844 24.351562 17.054688 24.359375 16.601562 24.285156 C 16.15625 24.199219 15.550781 23.988281 14.957031 23.609375 C 14.375 23.222656 13.929688 22.773438 13.644531 22.417969 C 13.371094 22.0625 13.238281 21.820312 13.269531 21.792969 C 13.304688 21.765625 13.507812 21.960938 13.820312 22.269531 C 14.136719 22.570312 14.585938 22.972656 15.136719 23.339844 C 15.695312 23.695312 16.25 23.921875 16.664062 24.066406 " fill-opacity="1" fill-rule="nonzero"/><path fill="#545454" d="M 15.769531 26.109375 C 16.375 26.34375 16.773438 26.425781 16.765625 26.476562 C 16.761719 26.515625 16.339844 26.511719 15.699219 26.324219 C 15.371094 26.238281 15.003906 26.085938 14.601562 25.898438 C 14.207031 25.699219 13.785156 25.460938 13.367188 25.171875 C 12.953125 24.878906 12.574219 24.574219 12.246094 24.285156 C 11.925781 23.988281 11.644531 23.710938 11.425781 23.460938 C 10.984375 22.960938 10.769531 22.617188 10.800781 22.589844 C 10.875 22.527344 11.917969 23.78125 13.554688 24.90625 C 13.960938 25.183594 14.363281 25.429688 14.738281 25.632812 C 15.121094 25.828125 15.46875 25.996094 15.769531 26.109375 " fill-opacity="1" fill-rule="nonzero"/><path fill="#545454" d="M 14.386719 24.175781 C 15.601562 24.996094 16.738281 25.425781 16.699219 25.523438 C 16.6875 25.5625 16.386719 25.496094 15.921875 25.328125 C 15.457031 25.15625 14.832031 24.867188 14.199219 24.441406 C 13.574219 24.003906 13.089844 23.511719 12.777344 23.117188 C 12.484375 22.726562 12.339844 22.457031 12.371094 22.433594 C 12.410156 22.402344 12.621094 22.625 12.953125 22.976562 C 13.292969 23.308594 13.78125 23.757812 14.386719 24.175781 " fill-opacity="1" fill-rule="nonzero"/><path fill="#545454" d="M 14.644531 28.570312 C 15.382812 28.855469 15.875 28.941406 15.867188 28.996094 C 15.863281 29.03125 15.351562 29.023438 14.566406 28.785156 C 14.371094 28.730469 14.164062 28.644531 13.9375 28.5625 C 13.71875 28.464844 13.480469 28.367188 13.242188 28.242188 C 13 28.125 12.753906 27.976562 12.503906 27.828125 C 12.375 27.75 12.261719 27.683594 12.125 27.585938 C 12 27.5 11.878906 27.410156 11.753906 27.320312 C 11.257812 26.957031 10.792969 26.617188 10.359375 26.285156 C 9.933594 25.929688 9.648438 25.527344 9.410156 25.207031 C 9.171875 24.882812 8.976562 24.636719 8.835938 24.464844 C 8.683594 24.296875 8.605469 24.203125 8.617188 24.183594 C 8.632812 24.167969 8.742188 24.234375 8.921875 24.371094 C 9.09375 24.523438 9.332031 24.757812 9.589844 25.066406 C 9.851562 25.371094 10.148438 25.742188 10.546875 26.054688 C 10.976562 26.363281 11.449219 26.703125 11.945312 27.058594 C 12.070312 27.148438 12.191406 27.238281 12.3125 27.328125 C 12.417969 27.402344 12.558594 27.484375 12.671875 27.5625 C 12.917969 27.714844 13.148438 27.855469 13.378906 27.976562 C 13.609375 28.109375 13.835938 28.210938 14.042969 28.316406 C 14.261719 28.40625 14.453125 28.503906 14.644531 28.570312 " fill-opacity="1" fill-rule="nonzero"/><path fill="#545454" d="M 14.828125 27.097656 C 15.445312 27.339844 15.84375 27.449219 15.832031 27.5 C 15.828125 27.539062 15.40625 27.507812 14.753906 27.3125 C 14.425781 27.21875 14.046875 27.074219 13.636719 26.890625 C 13.230469 26.703125 12.792969 26.46875 12.355469 26.1875 C 11.921875 25.902344 11.53125 25.597656 11.199219 25.296875 C 10.871094 24.988281 10.589844 24.691406 10.390625 24.414062 C 9.976562 23.863281 9.839844 23.46875 9.871094 23.453125 C 9.917969 23.421875 10.128906 23.789062 10.570312 24.273438 C 10.785156 24.519531 11.070312 24.789062 11.394531 25.074219 C 11.730469 25.355469 12.113281 25.640625 12.535156 25.917969 C 12.957031 26.191406 13.378906 26.421875 13.765625 26.625 C 14.160156 26.8125 14.519531 26.980469 14.828125 27.097656 " fill-opacity="1" fill-rule="nonzero"/><path fill="#545454" d="M 14.710938 8.125 C 14.730469 8.167969 14.226562 8.417969 13.410156 8.804688 C 13.207031 8.902344 12.984375 9.003906 12.75 9.128906 C 12.511719 9.242188 12.269531 9.378906 12.011719 9.527344 C 11.878906 9.59375 11.757812 9.683594 11.628906 9.765625 C 11.503906 9.847656 11.367188 9.929688 11.246094 10.03125 C 11.125 10.128906 11 10.21875 10.875 10.324219 C 10.753906 10.445312 10.632812 10.5625 10.511719 10.683594 C 10.046875 11.164062 9.640625 11.679688 9.292969 12.152344 C 9.125 12.398438 8.957031 12.625 8.820312 12.847656 C 8.75 12.957031 8.679688 13.066406 8.613281 13.167969 C 8.550781 13.273438 8.492188 13.371094 8.433594 13.46875 C 7.976562 14.234375 7.734375 14.742188 7.691406 14.71875 C 7.65625 14.707031 7.820312 14.171875 8.234375 13.355469 C 8.285156 13.257812 8.339844 13.152344 8.398438 13.042969 C 8.460938 12.933594 8.527344 12.824219 8.59375 12.707031 C 8.722656 12.472656 8.882812 12.238281 9.046875 11.984375 C 9.390625 11.488281 9.789062 10.964844 10.28125 10.453125 C 10.40625 10.332031 10.527344 10.214844 10.648438 10.097656 C 10.777344 9.984375 10.921875 9.882812 11.054688 9.78125 C 11.1875 9.671875 11.328125 9.589844 11.460938 9.503906 C 11.601562 9.421875 11.726562 9.335938 11.863281 9.269531 C 12.132812 9.125 12.386719 8.992188 12.632812 8.886719 C 12.878906 8.773438 13.109375 8.679688 13.320312 8.59375 C 14.164062 8.261719 14.695312 8.085938 14.710938 8.125 " fill-opacity="1" fill-rule="nonzero"/><path fill="#545454" d="M 13.078125 9.816406 C 13.097656 9.855469 12.8125 10.042969 12.355469 10.332031 C 11.914062 10.640625 11.308594 11.074219 10.746094 11.664062 C 10.183594 12.261719 9.765625 12.875 9.449219 13.316406 C 9.148438 13.769531 8.949219 14.042969 8.90625 14.019531 C 8.871094 13.996094 9 13.683594 9.253906 13.199219 C 9.523438 12.71875 9.921875 12.0625 10.507812 11.441406 C 11.097656 10.824219 11.753906 10.398438 12.238281 10.136719 C 12.738281 9.890625 13.058594 9.777344 13.078125 9.816406 " fill-opacity="1" fill-rule="nonzero"/><path fill="#545454" d="M 12.179688 11.441406 C 12.203125 11.480469 12.101562 11.578125 11.941406 11.71875 C 11.78125 11.863281 11.570312 12.0625 11.355469 12.300781 C 11.144531 12.542969 10.972656 12.777344 10.855469 12.945312 C 10.734375 13.125 10.652344 13.242188 10.609375 13.222656 C 10.570312 13.207031 10.574219 13.066406 10.644531 12.851562 C 10.722656 12.628906 10.882812 12.351562 11.109375 12.085938 C 11.347656 11.828125 11.605469 11.636719 11.8125 11.53125 C 12.015625 11.429688 12.160156 11.402344 12.179688 11.441406 " fill-opacity="1" fill-rule="nonzero"/><g fill="#545454" fill-opacity="1"><g transform="translate(32.262426, 16.008608)"><g><path d="M 3.09375 -1.828125 L 3.125 -1.828125 L 3.75 -9.453125 L 6.03125 -9.453125 L 4.75 0 L 1.28125 0 L 0.109375 -9.453125 L 2.546875 -9.453125 Z M 3.09375 -1.828125 "/></g></g></g><g fill="#545454" fill-opacity="1"><g transform="translate(38.929314, 16.008608)"><g><path d="M 2.6875 0 L 0.25 0 L 0.25 -9.453125 L 2.6875 -9.453125 Z M 2.6875 0 "/></g></g></g><g fill="#545454" fill-opacity="1"><g transform="translate(42.40202, 16.008608)"><g><path d="M 3.75 -4.75 L 3.78125 -4.75 L 3.78125 -9.453125 L 5.84375 -9.453125 L 5.84375 0 L 3.78125 0 L 2.390625 -5.28125 L 2.359375 -5.28125 L 2.359375 0 L 0.296875 0 L 0.296875 -9.453125 L 2.359375 -9.453125 Z M 3.75 -4.75 "/></g></g></g><g fill="#545454" fill-opacity="1"><g transform="translate(49.068909, 16.008608)"><g><path d="M 2.984375 -5.703125 L 3 -5.703125 L 3.609375 -9.453125 L 5.890625 -9.453125 L 4.125 -3.453125 L 4.125 0 L 1.765625 0 L 1.765625 -3.4375 L 0 -9.453125 L 2.28125 -9.453125 Z M 2.984375 -5.703125 "/></g></g></g><g fill="#545454" fill-opacity="1"><g transform="translate(55.483967, 16.008608)"><g><path d="M 2.734375 -1.828125 L 4.34375 -1.828125 L 4.34375 0 L 0.296875 0 L 0.296875 -9.453125 L 2.734375 -9.453125 Z M 2.734375 -1.828125 "/></g></g></g><g fill="#545454" fill-opacity="1"><g transform="translate(60.427848, 16.008608)"><g/></g></g><g fill="#545454" fill-opacity="1"><g transform="translate(64.139122, 16.008608)"><g><path d="M 5.75 -7.59375 L 5.75 -6.640625 C 5.75 -6.117188 5.628906 -5.726562 5.390625 -5.46875 C 5.148438 -5.207031 4.789062 -5.054688 4.3125 -5.015625 L 4.3125 -5 C 4.832031 -4.957031 5.21875 -4.800781 5.46875 -4.53125 C 5.71875 -4.269531 5.84375 -3.878906 5.84375 -3.359375 L 5.84375 0 L 3.5625 0 L 3.5625 -3.625 C 3.5625 -4.144531 3.347656 -4.40625 2.921875 -4.40625 C 2.828125 -4.40625 2.738281 -4.394531 2.65625 -4.375 L 2.65625 0 L 0.296875 0 L 0.296875 -9.453125 L 3.140625 -9.453125 C 3.703125 -9.453125 4.164062 -9.410156 4.53125 -9.328125 C 4.894531 -9.242188 5.1875 -9.066406 5.40625 -8.796875 C 5.632812 -8.535156 5.75 -8.132812 5.75 -7.59375 Z M 2.828125 -5.84375 C 3.109375 -5.84375 3.300781 -5.90625 3.40625 -6.03125 C 3.507812 -6.164062 3.5625 -6.316406 3.5625 -6.484375 L 3.5625 -7.3125 C 3.5625 -7.46875 3.507812 -7.613281 3.40625 -7.75 C 3.300781 -7.882812 3.109375 -7.953125 2.828125 -7.953125 L 2.65625 -7.953125 L 2.65625 -5.84375 Z M 2.828125 -5.84375 "/></g></g></g><g fill="#545454" fill-opacity="1"><g transform="translate(70.80601, 16.008608)"><g><path d="M 4.40625 -7.546875 L 2.734375 -7.546875 L 2.734375 -5.8125 L 4.3125 -5.8125 L 4.3125 -3.984375 L 2.734375 -3.984375 L 2.734375 -1.90625 L 4.546875 -1.90625 L 4.546875 0 L 0.296875 0 L 0.296875 -9.453125 L 4.40625 -9.453125 Z M 4.40625 -7.546875 "/></g></g></g><g fill="#545454" fill-opacity="1"><g transform="translate(76.001721, 16.008608)"><g><path d="M 3.25 -9.65625 C 4.164062 -9.65625 4.847656 -9.410156 5.296875 -8.921875 C 5.742188 -8.441406 5.96875 -7.816406 5.96875 -7.046875 L 5.96875 -5.65625 L 3.53125 -5.65625 L 3.53125 -7.515625 C 3.53125 -7.703125 3.5 -7.835938 3.4375 -7.921875 C 3.382812 -8.015625 3.269531 -8.0625 3.09375 -8.0625 C 2.957031 -8.0625 2.863281 -8 2.8125 -7.875 C 2.757812 -7.757812 2.734375 -7.628906 2.734375 -7.484375 L 2.734375 -1.96875 C 2.734375 -1.832031 2.757812 -1.703125 2.8125 -1.578125 C 2.863281 -1.453125 2.957031 -1.390625 3.09375 -1.390625 C 3.269531 -1.390625 3.382812 -1.441406 3.4375 -1.546875 C 3.5 -1.648438 3.53125 -1.816406 3.53125 -2.046875 L 3.53125 -4.078125 L 5.96875 -4.078125 L 5.96875 -2.46875 C 5.96875 -1.976562 5.863281 -1.53125 5.65625 -1.125 C 5.457031 -0.71875 5.148438 -0.394531 4.734375 -0.15625 C 4.316406 0.0820312 3.800781 0.203125 3.1875 0.203125 C 2.25 0.203125 1.53125 -0.0195312 1.03125 -0.46875 C 0.539062 -0.925781 0.296875 -1.65625 0.296875 -2.65625 L 0.296875 -6.796875 C 0.296875 -7.734375 0.546875 -8.441406 1.046875 -8.921875 C 1.546875 -9.410156 2.28125 -9.65625 3.25 -9.65625 Z M 3.25 -9.65625 "/></g></g></g><g fill="#545454" fill-opacity="1"><g transform="translate(82.668612, 16.008608)"><g><path d="M 3.1875 -9.65625 C 4.132812 -9.65625 4.851562 -9.429688 5.34375 -8.984375 C 5.84375 -8.535156 6.09375 -7.804688 6.09375 -6.796875 L 6.09375 -2.65625 C 6.09375 -1.664062 5.847656 -0.941406 5.359375 -0.484375 C 4.867188 -0.0234375 4.144531 0.203125 3.1875 0.203125 C 2.238281 0.203125 1.519531 -0.0195312 1.03125 -0.46875 C 0.539062 -0.914062 0.296875 -1.644531 0.296875 -2.65625 L 0.296875 -6.796875 C 0.296875 -7.796875 0.539062 -8.519531 1.03125 -8.96875 C 1.519531 -9.425781 2.238281 -9.65625 3.1875 -9.65625 Z M 2.734375 -7.484375 L 2.734375 -1.96875 C 2.734375 -1.789062 2.769531 -1.648438 2.84375 -1.546875 C 2.925781 -1.441406 3.039062 -1.390625 3.1875 -1.390625 C 3.34375 -1.390625 3.457031 -1.441406 3.53125 -1.546875 C 3.613281 -1.648438 3.65625 -1.789062 3.65625 -1.96875 L 3.65625 -7.484375 C 3.65625 -7.671875 3.613281 -7.8125 3.53125 -7.90625 C 3.457031 -8.007812 3.34375 -8.0625 3.1875 -8.0625 C 2.882812 -8.0625 2.734375 -7.867188 2.734375 -7.484375 Z M 2.734375 -7.484375 "/></g></g></g><g fill="#545454" fill-opacity="1"><g transform="translate(89.587319, 16.008608)"><g><path d="M 5.75 -7.59375 L 5.75 -6.640625 C 5.75 -6.117188 5.628906 -5.726562 5.390625 -5.46875 C 5.148438 -5.207031 4.789062 -5.054688 4.3125 -5.015625 L 4.3125 -5 C 4.832031 -4.957031 5.21875 -4.800781 5.46875 -4.53125 C 5.71875 -4.269531 5.84375 -3.878906 5.84375 -3.359375 L 5.84375 0 L 3.5625 0 L 3.5625 -3.625 C 3.5625 -4.144531 3.347656 -4.40625 2.921875 -4.40625 C 2.828125 -4.40625 2.738281 -4.394531 2.65625 -4.375 L 2.65625 0 L 0.296875 0 L 0.296875 -9.453125 L 3.140625 -9.453125 C 3.703125 -9.453125 4.164062 -9.410156 4.53125 -9.328125 C 4.894531 -9.242188 5.1875 -9.066406 5.40625 -8.796875 C 5.632812 -8.535156 5.75 -8.132812 5.75 -7.59375 Z M 2.828125 -5.84375 C 3.109375 -5.84375 3.300781 -5.90625 3.40625 -6.03125 C 3.507812 -6.164062 3.5625 -6.316406 3.5625 -6.484375 L 3.5625 -7.3125 C 3.5625 -7.46875 3.507812 -7.613281 3.40625 -7.75 C 3.300781 -7.882812 3.109375 -7.953125 2.828125 -7.953125 L 2.65625 -7.953125 L 2.65625 -5.84375 Z M 2.828125 -5.84375 "/></g></g></g><g fill="#545454" fill-opacity="1"><g transform="translate(96.254207, 16.008608)"><g><path d="M 6.09375 -7.109375 L 6.09375 -1.78125 C 6.09375 -1.195312 5.894531 -0.753906 5.5 -0.453125 C 5.113281 -0.148438 4.609375 0 3.984375 0 L 0.296875 0 L 0.296875 -9.453125 L 3.453125 -9.453125 C 4.035156 -9.453125 4.515625 -9.390625 4.890625 -9.265625 C 5.273438 -9.140625 5.570312 -8.90625 5.78125 -8.5625 C 5.988281 -8.21875 6.09375 -7.734375 6.09375 -7.109375 Z M 3.65625 -2.296875 L 3.65625 -7.171875 C 3.65625 -7.347656 3.601562 -7.507812 3.5 -7.65625 C 3.40625 -7.800781 3.273438 -7.875 3.109375 -7.875 L 2.734375 -7.875 L 2.734375 -1.59375 L 3.109375 -1.59375 C 3.273438 -1.59375 3.40625 -1.660156 3.5 -1.796875 C 3.601562 -1.941406 3.65625 -2.109375 3.65625 -2.296875 Z M 3.65625 -2.296875 "/></g></g></g><g fill="#545454" fill-opacity="1"><g transform="translate(32.262426, 28.646765)"><g><path d="M 3.25 -9.65625 C 4.164062 -9.65625 4.847656 -9.410156 5.296875 -8.921875 C 5.742188 -8.441406 5.96875 -7.816406 5.96875 -7.046875 L 5.96875 -5.65625 L 3.53125 -5.65625 L 3.53125 -7.515625 C 3.53125 -7.703125 3.5 -7.835938 3.4375 -7.921875 C 3.382812 -8.015625 3.269531 -8.0625 3.09375 -8.0625 C 2.957031 -8.0625 2.863281 -8 2.8125 -7.875 C 2.757812 -7.757812 2.734375 -7.628906 2.734375 -7.484375 L 2.734375 -1.96875 C 2.734375 -1.832031 2.757812 -1.703125 2.8125 -1.578125 C 2.863281 -1.453125 2.957031 -1.390625 3.09375 -1.390625 C 3.269531 -1.390625 3.382812 -1.441406 3.4375 -1.546875 C 3.5 -1.648438 3.53125 -1.816406 3.53125 -2.046875 L 3.53125 -4.078125 L 5.96875 -4.078125 L 5.96875 -2.46875 C 5.96875 -1.976562 5.863281 -1.53125 5.65625 -1.125 C 5.457031 -0.71875 5.148438 -0.394531 4.734375 -0.15625 C 4.316406 0.0820312 3.800781 0.203125 3.1875 0.203125 C 2.25 0.203125 1.53125 -0.0195312 1.03125 -0.46875 C 0.539062 -0.925781 0.296875 -1.65625 0.296875 -2.65625 L 0.296875 -6.796875 C 0.296875 -7.734375 0.546875 -8.441406 1.046875 -8.921875 C 1.546875 -9.410156 2.28125 -9.65625 3.25 -9.65625 Z M 3.25 -9.65625 "/></g></g></g><g fill="#545454" fill-opacity="1"><g transform="translate(38.929314, 28.646765)"><g><path d="M 3.1875 -9.65625 C 4.132812 -9.65625 4.851562 -9.429688 5.34375 -8.984375 C 5.84375 -8.535156 6.09375 -7.804688 6.09375 -6.796875 L 6.09375 -2.65625 C 6.09375 -1.664062 5.847656 -0.941406 5.359375 -0.484375 C 4.867188 -0.0234375 4.144531 0.203125 3.1875 0.203125 C 2.238281 0.203125 1.519531 -0.0195312 1.03125 -0.46875 C 0.539062 -0.914062 0.296875 -1.644531 0.296875 -2.65625 L 0.296875 -6.796875 C 0.296875 -7.796875 0.539062 -8.519531 1.03125 -8.96875 C 1.519531 -9.425781 2.238281 -9.65625 3.1875 -9.65625 Z M 2.734375 -7.484375 L 2.734375 -1.96875 C 2.734375 -1.789062 2.769531 -1.648438 2.84375 -1.546875 C 2.925781 -1.441406 3.039062 -1.390625 3.1875 -1.390625 C 3.34375 -1.390625 3.457031 -1.441406 3.53125 -1.546875 C 3.613281 -1.648438 3.65625 -1.789062 3.65625 -1.96875 L 3.65625 -7.484375 C 3.65625 -7.671875 3.613281 -7.8125 3.53125 -7.90625 C 3.457031 -8.007812 3.34375 -8.0625 3.1875 -8.0625 C 2.882812 -8.0625 2.734375 -7.867188 2.734375 -7.484375 Z M 2.734375 -7.484375 "/></g></g></g><g fill="#545454" fill-opacity="1"><g transform="translate(45.848022, 28.646765)"><g><path d="M 2.734375 -2.1875 C 2.734375 -1.894531 2.773438 -1.703125 2.859375 -1.609375 C 2.953125 -1.515625 3.0625 -1.46875 3.1875 -1.46875 C 3.320312 -1.46875 3.429688 -1.515625 3.515625 -1.609375 C 3.609375 -1.703125 3.65625 -1.894531 3.65625 -2.1875 L 3.65625 -9.453125 L 6.09375 -9.453125 L 6.09375 -2.53125 C 6.09375 -0.707031 5.125 0.203125 3.1875 0.203125 C 1.257812 0.203125 0.296875 -0.707031 0.296875 -2.53125 L 0.296875 -9.453125 L 2.734375 -9.453125 Z M 2.734375 -2.1875 "/></g></g></g><g fill="#545454" fill-opacity="1"><g transform="translate(52.76673, 28.646765)"><g><path d="M 5.71875 -7.359375 L 5.71875 -6.0625 C 5.71875 -5.3125 5.546875 -4.753906 5.203125 -4.390625 C 4.859375 -4.035156 4.378906 -3.859375 3.765625 -3.859375 L 2.65625 -3.859375 L 2.65625 0 L 0.296875 0 L 0.296875 -9.453125 L 3.53125 -9.453125 C 4.226562 -9.453125 4.765625 -9.269531 5.140625 -8.90625 C 5.523438 -8.539062 5.71875 -8.023438 5.71875 -7.359375 Z M 3.65625 -5.984375 L 3.65625 -7.328125 C 3.65625 -7.691406 3.46875 -7.875 3.09375 -7.875 L 2.65625 -7.875 L 2.65625 -5.453125 L 3.09375 -5.453125 C 3.46875 -5.453125 3.65625 -5.628906 3.65625 -5.984375 Z M 3.65625 -5.984375 "/></g></g></g><g fill="#545454" fill-opacity="1"><g transform="translate(59.181787, 28.646765)"><g><path d="M 3.1875 -9.65625 C 4.132812 -9.65625 4.851562 -9.429688 5.34375 -8.984375 C 5.84375 -8.535156 6.09375 -7.804688 6.09375 -6.796875 L 6.09375 -2.65625 C 6.09375 -1.664062 5.847656 -0.941406 5.359375 -0.484375 C 4.867188 -0.0234375 4.144531 0.203125 3.1875 0.203125 C 2.238281 0.203125 1.519531 -0.0195312 1.03125 -0.46875 C 0.539062 -0.914062 0.296875 -1.644531 0.296875 -2.65625 L 0.296875 -6.796875 C 0.296875 -7.796875 0.539062 -8.519531 1.03125 -8.96875 C 1.519531 -9.425781 2.238281 -9.65625 3.1875 -9.65625 Z M 2.734375 -7.484375 L 2.734375 -1.96875 C 2.734375 -1.789062 2.769531 -1.648438 2.84375 -1.546875 C 2.925781 -1.441406 3.039062 -1.390625 3.1875 -1.390625 C 3.34375 -1.390625 3.457031 -1.441406 3.53125 -1.546875 C 3.613281 -1.648438 3.65625 -1.789062 3.65625 -1.96875 L 3.65625 -7.484375 C 3.65625 -7.671875 3.613281 -7.8125 3.53125 -7.90625 C 3.457031 -8.007812 3.34375 -8.0625 3.1875 -8.0625 C 2.882812 -8.0625 2.734375 -7.867188 2.734375 -7.484375 Z M 2.734375 -7.484375 "/></g></g></g><g fill="#545454" fill-opacity="1"><g transform="translate(66.100494, 28.646765)"><g><path d="M 3.75 -4.75 L 3.78125 -4.75 L 3.78125 -9.453125 L 5.84375 -9.453125 L 5.84375 0 L 3.78125 0 L 2.390625 -5.28125 L 2.359375 -5.28125 L 2.359375 0 L 0.296875 0 L 0.296875 -9.453125 L 2.359375 -9.453125 Z M 3.75 -4.75 "/></g></g></g><g fill="#545454" fill-opacity="1"><g transform="translate(72.767382, 28.646765)"><g><path d="M 2.84375 -9.65625 C 4.632812 -9.65625 5.53125 -8.976562 5.53125 -7.625 L 5.53125 -6.6875 L 3.359375 -6.6875 L 3.359375 -7.515625 C 3.359375 -7.941406 3.195312 -8.15625 2.875 -8.15625 C 2.601562 -8.15625 2.46875 -7.957031 2.46875 -7.5625 L 2.46875 -7.09375 C 2.46875 -6.914062 2.523438 -6.75 2.640625 -6.59375 C 2.765625 -6.4375 2.898438 -6.304688 3.046875 -6.203125 C 3.191406 -6.109375 3.414062 -5.972656 3.71875 -5.796875 C 4.101562 -5.566406 4.425781 -5.335938 4.6875 -5.109375 C 4.957031 -4.890625 5.191406 -4.601562 5.390625 -4.25 C 5.597656 -3.90625 5.703125 -3.492188 5.703125 -3.015625 L 5.703125 -2.171875 C 5.703125 -1.273438 5.445312 -0.65625 4.9375 -0.3125 C 4.425781 0.03125 3.726562 0.203125 2.84375 0.203125 C 1.875 0.203125 1.191406 0.0078125 0.796875 -0.375 C 0.398438 -0.769531 0.203125 -1.375 0.203125 -2.1875 L 0.203125 -3.4375 L 2.484375 -3.4375 L 2.484375 -1.875 C 2.484375 -1.5 2.617188 -1.3125 2.890625 -1.3125 C 3.035156 -1.3125 3.144531 -1.367188 3.21875 -1.484375 C 3.300781 -1.609375 3.34375 -1.8125 3.34375 -2.09375 L 3.34375 -2.59375 C 3.34375 -2.832031 3.273438 -3.046875 3.140625 -3.234375 C 3.015625 -3.421875 2.875 -3.570312 2.71875 -3.6875 C 2.5625 -3.800781 2.34375 -3.945312 2.0625 -4.125 C 1.6875 -4.351562 1.367188 -4.566406 1.109375 -4.765625 C 0.859375 -4.972656 0.640625 -5.238281 0.453125 -5.5625 C 0.273438 -5.894531 0.1875 -6.285156 0.1875 -6.734375 L 0.1875 -7.359375 C 0.1875 -8.890625 1.070312 -9.65625 2.84375 -9.65625 Z M 2.84375 -9.65625 "/></g></g></g><g fill="#545454" fill-opacity="1"><g transform="translate(78.671117, 26.434533)"><g><path d="M 1.96875 -3.53125 L 1.328125 -3.53125 L 1.328125 -6.5 L 0.28125 -6.5 L 0.28125 -7.046875 L 3.015625 -7.046875 L 3.015625 -6.5 L 1.96875 -6.5 Z M 4.0625 -3.53125 L 3.5 -3.53125 L 3.5 -7.046875 L 4.40625 -7.046875 L 5.34375 -4.453125 L 5.421875 -4.453125 L 6.34375 -7.046875 L 7.25 -7.046875 L 7.25 -3.53125 L 6.671875 -3.53125 L 6.671875 -6.21875 L 6.59375 -6.234375 L 5.625 -3.53125 L 5.109375 -3.53125 L 4.15625 -6.234375 L 4.0625 -6.21875 Z M 4.0625 -3.53125 "/></g></g></g></svg>